<svg width="35" height="36" viewBox="0 0 35 36" fill="none" xmlns="http://www.w3.org/2000/svg">
<path d="M28.7671 18.9474H6.23287C5.1737 18.9474 4.31506 19.7957 4.31506 20.8421V31.7368C4.31506 32.7833 5.1737 33.6316 6.23287 33.6316H28.7671C29.8263 33.6316 30.6849 32.7833 30.6849 31.7368V20.8421C30.6849 19.7957 29.8263 18.9474 28.7671 18.9474Z" fill="#9196E4"/>
<path d="M28.7671 2.36842H6.23287C5.1737 2.36842 4.31506 3.21673 4.31506 4.26316V15.1579C4.31506 16.2043 5.1737 17.0526 6.23287 17.0526H28.7671C29.8263 17.0526 30.6849 16.2043 30.6849 15.1579V4.26316C30.6849 3.21673 29.8263 2.36842 28.7671 2.36842Z" fill="#9196E4"/>
<path d="M5.92603 15.1579C5.86466 15.1579 5.80841 15.1427 5.75726 15.1124C5.71635 15.072 5.69589 15.0215 5.69589 14.9608V3.86526C5.69589 3.80463 5.71635 3.7541 5.75726 3.71368C5.79817 3.67326 5.84932 3.65305 5.91069 3.65305H6.67781C6.73918 3.65305 6.79032 3.67326 6.83123 3.71368C6.87215 3.7541 6.8926 3.80463 6.8926 3.86526V9.91326H7.52165L10.5441 6.71495C10.626 6.624 10.7129 6.57853 10.8049 6.57853H11.8022C11.8636 6.57853 11.9096 6.59875 11.9403 6.63916C11.9812 6.66947 12.0016 6.70988 12.0016 6.76042C12.0016 6.82105 11.9812 6.87159 11.9403 6.912L8.53425 10.4286L12.1244 14.8547C12.1551 14.8951 12.1704 14.9356 12.1704 14.976C12.1704 15.0265 12.1551 15.072 12.1244 15.1124C12.0937 15.1427 12.0477 15.1579 11.9863 15.1579H10.989C10.897 15.1579 10.8101 15.1124 10.7282 15.0215L7.52165 11.0349H6.8926V14.9608C6.8926 15.0215 6.86704 15.072 6.81589 15.1124C6.77498 15.1427 6.72384 15.1579 6.66247 15.1579H5.92603ZM16.0077 15.3549C15.2201 15.3549 14.5757 15.1377 14.0746 14.7032C13.5734 14.2585 13.3228 13.6775 13.3228 12.96C13.3228 12.2931 13.5478 11.7423 13.9978 11.3078C14.4581 10.8733 15.0974 10.6004 15.9157 10.4893L17.9102 10.2164C18.2068 10.176 18.4216 10.08 18.5546 9.92842C18.6875 9.76675 18.754 9.53938 18.754 9.24632V9.12505C18.754 8.64 18.5597 8.25096 18.171 7.95789C17.7926 7.65474 17.3169 7.50316 16.7441 7.50316C16.2941 7.50316 15.9003 7.59411 15.5628 7.776C15.2355 7.94781 14.9746 8.19033 14.7803 8.50358C14.6985 8.63493 14.5962 8.70063 14.4735 8.70063C14.4121 8.70063 14.3456 8.67538 14.274 8.62484L13.8598 8.352C13.7677 8.27114 13.7217 8.18526 13.7217 8.09432C13.7217 8.05391 13.737 8.00337 13.7677 7.94274C14.0643 7.45768 14.4683 7.07874 14.9798 6.80589C15.5014 6.52296 16.0998 6.38147 16.7748 6.38147C17.3885 6.38147 17.9357 6.49767 18.4165 6.73011C18.8972 6.95241 19.2654 7.27072 19.5211 7.68505C19.7871 8.09938 19.92 8.57937 19.92 9.12505V14.9457C19.92 15.0063 19.8996 15.0569 19.8587 15.0973C19.8178 15.1377 19.7666 15.1579 19.7052 15.1579H19.0609C18.9995 15.1579 18.9483 15.1377 18.9074 15.0973C18.8665 15.0569 18.8461 15.0063 18.8461 14.9457V13.8998C18.529 14.3545 18.1198 14.7132 17.6187 14.976C17.1277 15.2286 16.5907 15.3549 16.0077 15.3549ZM16.1304 14.2939C16.6316 14.2939 17.0868 14.1625 17.4959 13.8998C17.905 13.637 18.2222 13.3086 18.4472 12.9145C18.6824 12.5103 18.8 12.1162 18.8 11.7322V11.1107C18.5546 11.1411 17.767 11.2472 16.4373 11.4291L16.0077 11.4897C14.9849 11.6413 14.4735 12.1162 14.4735 12.9145C14.4735 13.3289 14.6269 13.6623 14.9337 13.9149C15.2406 14.1676 15.6395 14.2939 16.1304 14.2939ZM22.7365 15.1427C22.6751 15.1427 22.624 15.1225 22.5831 15.0821C22.5421 15.0417 22.5217 14.9912 22.5217 14.9305V6.79074C22.5217 6.73011 22.5421 6.67956 22.5831 6.63916C22.624 6.59875 22.6751 6.57853 22.7365 6.57853H23.5036C23.565 6.57853 23.6161 6.59875 23.657 6.63916C23.6979 6.67956 23.7184 6.73011 23.7184 6.79074V7.62442C23.9843 7.21009 24.327 6.89684 24.7463 6.68463C25.1759 6.47242 25.6566 6.36632 26.1885 6.36632C27.0579 6.36632 27.7585 6.62907 28.2905 7.15453C28.8325 7.67998 29.1036 8.37223 29.1036 9.23116V14.9305C29.1036 14.9912 29.0831 15.0417 29.0422 15.0821C29.0013 15.1225 28.9502 15.1427 28.8888 15.1427H28.1217C28.0603 15.1427 28.0092 15.1225 27.9683 15.0821C27.9273 15.0417 27.9069 14.9912 27.9069 14.9305V9.45853C27.9069 8.81181 27.733 8.32168 27.3853 7.98821C27.0477 7.64465 26.5874 7.47284 26.0044 7.47284C25.3191 7.47284 24.7668 7.69514 24.3474 8.13979C23.9281 8.58444 23.7184 9.19577 23.7184 9.97389V14.9305C23.7184 14.9912 23.6979 15.0417 23.657 15.0821C23.6161 15.1225 23.565 15.1427 23.5036 15.1427H22.7365Z" fill="white"/>
<path d="M9.16329 31.9339C8.71324 31.9339 8.28365 31.848 7.87452 31.6762C7.47562 31.4943 7.12786 31.2467 6.83123 30.9335V31.5246C6.83123 31.5853 6.81078 31.6358 6.76986 31.6762C6.72895 31.7166 6.67781 31.7368 6.61644 31.7368H5.91069C5.84932 31.7368 5.79817 31.7166 5.75726 31.6762C5.71635 31.6358 5.69589 31.5853 5.69589 31.5246V20.4442C5.69589 20.3836 5.71635 20.333 5.75726 20.2926C5.79817 20.2522 5.84932 20.232 5.91069 20.232H6.67781C6.73918 20.232 6.79032 20.2522 6.83123 20.2926C6.87215 20.333 6.8926 20.3836 6.8926 20.4442V24.0215C7.179 23.688 7.51653 23.4303 7.90521 23.2484C8.30411 23.0564 8.72347 22.9604 9.16329 22.9604C9.7463 22.9604 10.2833 23.1019 10.7742 23.3848C11.2652 23.6678 11.6539 24.0518 11.9403 24.5368C12.2267 25.0219 12.3699 25.5524 12.3699 26.1284V28.7659C12.3699 29.3419 12.2267 29.8724 11.9403 30.3575C11.6539 30.8425 11.2652 31.2265 10.7742 31.5095C10.2833 31.7924 9.7463 31.9339 9.16329 31.9339ZM9.04055 30.8122C9.42924 30.8122 9.7872 30.7213 10.1145 30.5394C10.4418 30.3474 10.6975 30.0897 10.8816 29.7663C11.076 29.4429 11.1732 29.0893 11.1732 28.7053V26.1891C11.1732 25.805 11.076 25.4514 10.8816 25.128C10.6975 24.8046 10.4418 24.552 10.1145 24.3701C9.7872 24.1781 9.42924 24.0821 9.04055 24.0821C8.65187 24.0821 8.28877 24.1781 7.95123 24.3701C7.62393 24.552 7.36311 24.8046 7.16877 25.128C6.98466 25.4514 6.8926 25.805 6.8926 26.1891V28.7053C6.8926 29.0893 6.98466 29.4429 7.16877 29.7663C7.36311 30.0897 7.62393 30.3474 7.95123 30.5394C8.28877 30.7213 8.65187 30.8122 9.04055 30.8122Z" fill="white"/>
<path d="M16.3973 31.9339C15.6097 31.9339 14.9653 31.7166 14.4641 31.2821C13.9629 30.8374 13.7123 30.2564 13.7123 29.5389C13.7123 28.872 13.9373 28.3212 14.3874 27.8867C14.8477 27.4522 15.4869 27.1794 16.3052 27.0682L18.2997 26.7954C18.5964 26.755 18.8112 26.6589 18.9441 26.5074C19.0771 26.3457 19.1436 26.1183 19.1436 25.8253V25.704C19.1436 25.2189 18.9492 24.8299 18.5605 24.5368C18.1821 24.2337 17.7065 24.0821 17.1337 24.0821C16.6836 24.0821 16.2899 24.173 15.9523 24.3549C15.625 24.5267 15.3642 24.7693 15.1699 25.0825C15.088 25.2139 14.9858 25.2796 14.863 25.2796C14.8016 25.2796 14.7351 25.2543 14.6636 25.2038L14.2493 24.9309C14.1573 24.8501 14.1112 24.7642 14.1112 24.6733C14.1112 24.6328 14.1266 24.5823 14.1573 24.5217C14.4539 24.0366 14.8579 23.6577 15.3693 23.3848C15.891 23.1019 16.4893 22.9604 17.1644 22.9604C17.7781 22.9604 18.3253 23.0766 18.806 23.309C19.2868 23.5313 19.655 23.8497 19.9107 24.264C20.1766 24.6783 20.3096 25.1583 20.3096 25.704V31.5246C20.3096 31.5853 20.2891 31.6358 20.2482 31.6762C20.2073 31.7166 20.1562 31.7368 20.0948 31.7368H19.4504C19.389 31.7368 19.3379 31.7166 19.297 31.6762C19.2561 31.6358 19.2356 31.5853 19.2356 31.5246V30.4787C18.9186 30.9335 18.5094 31.2922 18.0082 31.5549C17.5173 31.8076 16.9803 31.9339 16.3973 31.9339ZM16.52 30.8728C17.0212 30.8728 17.4764 30.7415 17.8855 30.4787C18.2946 30.216 18.6117 29.8876 18.8367 29.4935C19.072 29.0893 19.1896 28.6952 19.1896 28.3111V27.6897C18.9441 27.72 18.1565 27.8261 16.8268 28.008L16.3973 28.0686C15.3744 28.2202 14.863 28.6952 14.863 29.4935C14.863 29.9078 15.0164 30.2413 15.3233 30.4939C15.6301 30.7465 16.029 30.8728 16.52 30.8728Z" fill="white"/>
<path d="M22.6915 31.7217C22.6301 31.7217 22.579 31.7015 22.5381 31.6611C22.4972 31.6206 22.4767 31.5701 22.4767 31.5095V23.3697C22.4767 23.3091 22.4972 23.2585 22.5381 23.2181C22.579 23.1777 22.6301 23.1575 22.6915 23.1575H23.4586C23.52 23.1575 23.5712 23.1777 23.6121 23.2181C23.653 23.2585 23.6734 23.3091 23.6734 23.3697V24.2034C23.9394 23.789 24.282 23.4758 24.7014 23.2636C25.131 23.0514 25.6117 22.9453 26.1436 22.9453C27.013 22.9453 27.7136 23.208 28.2455 23.7335C28.7876 24.2589 29.0586 24.9512 29.0586 25.8101V31.5095C29.0586 31.5701 29.0382 31.6206 28.9973 31.6611C28.9564 31.7015 28.9052 31.7217 28.8438 31.7217H28.0767C28.0153 31.7217 27.9642 31.7015 27.9233 31.6611C27.8824 31.6206 27.8619 31.5701 27.8619 31.5095V26.0375C27.8619 25.3908 27.688 24.9006 27.3403 24.5672C27.0027 24.2236 26.5425 24.0518 25.9595 24.0518C25.2742 24.0518 24.7218 24.2741 24.3025 24.7187C23.8831 25.1634 23.6734 25.7747 23.6734 26.5528V31.5095C23.6734 31.5701 23.653 31.6206 23.6121 31.6611C23.5712 31.7015 23.52 31.7217 23.4586 31.7217H22.6915Z" fill="white"/>
</svg>
