<svg width="39" height="41" viewBox="0 0 39 41" fill="none" xmlns="http://www.w3.org/2000/svg">
<path d="M32.0552 21.5791H6.94558C5.76536 21.5791 4.80859 22.5452 4.80859 23.737V36.1449C4.80859 37.3367 5.76536 38.3028 6.94558 38.3028H32.0552C33.2354 38.3028 34.1922 37.3367 34.1922 36.1449V23.737C34.1922 22.5452 33.2354 21.5791 32.0552 21.5791Z" fill="#C4C4C4"/>
<path d="M32.0552 2.69727H6.94558C5.76536 2.69727 4.80859 3.66339 4.80859 4.85516V17.2631C4.80859 18.4548 5.76536 19.4209 6.94558 19.4209H32.0552C33.2354 19.4209 34.1922 18.4548 34.1922 17.2631V4.85516C34.1922 3.66339 33.2354 2.69727 32.0552 2.69727Z" fill="#C4C4C4"/>
<path d="M6.60312 17.2629C6.53473 17.2629 6.47205 17.2456 6.41506 17.2111C6.36948 17.1651 6.34668 17.1075 6.34668 17.0385V4.40184C6.34668 4.33279 6.36948 4.27524 6.41506 4.22921C6.46065 4.18317 6.51764 4.16016 6.58602 4.16016H7.44082C7.5092 4.16016 7.56619 4.18317 7.61178 4.22921C7.65736 4.27524 7.68016 4.33279 7.68016 4.40184V11.2898H8.38109L11.749 7.64731C11.8402 7.54373 11.937 7.49195 12.0396 7.49195H13.1508C13.2192 7.49195 13.2705 7.51498 13.3047 7.561C13.3503 7.59552 13.3731 7.64154 13.3731 7.6991C13.3731 7.76816 13.3503 7.82572 13.3047 7.87174L9.50942 11.8768L13.5099 16.9176C13.544 16.9636 13.5611 17.0097 13.5611 17.0557C13.5611 17.1133 13.544 17.1651 13.5099 17.2111C13.4757 17.2456 13.4244 17.2629 13.356 17.2629H12.2448C12.1422 17.2629 12.0453 17.2111 11.9541 17.1075L8.38109 12.5673H7.68016V17.0385C7.68016 17.1075 7.65167 17.1651 7.59468 17.2111C7.54909 17.2456 7.4921 17.2629 7.42372 17.2629H6.60312ZM17.837 17.4873C16.9594 17.4873 16.2414 17.2399 15.6829 16.745C15.1245 16.2386 14.8452 15.5769 14.8452 14.7597C14.8452 14.0002 15.0959 13.3729 15.5974 12.8781C16.1103 12.3832 16.8226 12.0725 17.7344 11.9458L19.9569 11.6351C20.2874 11.5891 20.5268 11.4797 20.6749 11.3071C20.8231 11.123 20.8972 10.864 20.8972 10.5303V10.3922C20.8972 9.83974 20.6806 9.39667 20.2475 9.06289C19.8258 8.71763 19.2959 8.545 18.6576 8.545C18.1561 8.545 17.7173 8.64858 17.3412 8.85574C16.9765 9.0514 16.6858 9.32761 16.4693 9.68437C16.3781 9.83396 16.2642 9.90879 16.1274 9.90879C16.059 9.90879 15.9849 9.88003 15.9052 9.82247L15.4436 9.51173C15.341 9.41965 15.2897 9.32184 15.2897 9.21826C15.2897 9.17224 15.3068 9.11468 15.341 9.04563C15.6715 8.49321 16.1217 8.06163 16.6916 7.75089C17.2728 7.42867 17.9396 7.26752 18.6918 7.26752C19.3756 7.26752 19.9854 7.39986 20.521 7.66458C21.0567 7.91775 21.467 8.28028 21.7519 8.75216C22.0483 9.22403 22.1964 9.77068 22.1964 10.3922V17.0212C22.1964 17.0903 22.1736 17.1478 22.1281 17.1938C22.0825 17.2399 22.0255 17.2629 21.9571 17.2629H21.2391C21.1707 17.2629 21.1137 17.2399 21.0681 17.1938C21.0225 17.1478 20.9997 17.0903 20.9997 17.0212V15.8301C20.6464 16.3479 20.1905 16.7565 19.6321 17.0557C19.085 17.3434 18.4866 17.4873 17.837 17.4873ZM17.9738 16.2789C18.5322 16.2789 19.0394 16.1293 19.4953 15.8301C19.9512 15.5308 20.3045 15.1568 20.5552 14.7079C20.8174 14.2476 20.9484 13.7988 20.9484 13.3614V12.6536C20.6749 12.6882 19.7973 12.809 18.3157 13.0162L17.837 13.0852C16.6973 13.2578 16.1274 13.7988 16.1274 14.7079C16.1274 15.1798 16.2984 15.5596 16.6403 15.8473C16.9822 16.135 17.4267 16.2789 17.9738 16.2789ZM25.3348 17.2456C25.2664 17.2456 25.2094 17.2226 25.1638 17.1766C25.1182 17.1306 25.0954 17.073 25.0954 17.0039V7.73363C25.0954 7.66458 25.1182 7.60702 25.1638 7.561C25.2094 7.51498 25.2664 7.49195 25.3348 7.49195H26.1896C26.2579 7.49195 26.3149 7.51498 26.3605 7.561C26.4061 7.60702 26.4289 7.66458 26.4289 7.73363V8.6831C26.7252 8.21123 27.107 7.85447 27.5743 7.61279C28.053 7.3711 28.5886 7.25026 29.1813 7.25026C30.1501 7.25026 30.9308 7.54951 31.5235 8.14795C32.1275 8.74638 32.4296 9.53477 32.4296 10.513V17.0039C32.4296 17.073 32.4067 17.1306 32.3612 17.1766C32.3155 17.2226 32.2586 17.2456 32.1902 17.2456H31.3354C31.267 17.2456 31.21 17.2226 31.1645 17.1766C31.1188 17.1306 31.0961 17.073 31.0961 17.0039V10.7719C31.0961 10.0354 30.9023 9.47721 30.5148 9.09742C30.1387 8.70614 29.6258 8.51047 28.9762 8.51047C28.2125 8.51047 27.5971 8.76365 27.1298 9.27005C26.6625 9.77645 26.4289 10.4727 26.4289 11.3589V17.0039C26.4289 17.073 26.4061 17.1306 26.3605 17.1766C26.3149 17.2226 26.2579 17.2456 26.1896 17.2456H25.3348Z" fill="white"/>
<path d="M10.2104 36.3691C9.70887 36.3691 9.23018 36.2713 8.7743 36.0757C8.3298 35.8685 7.9423 35.5865 7.61178 35.2298V35.903C7.61178 35.9721 7.58898 36.0297 7.54339 36.0757C7.4978 36.1217 7.44082 36.1447 7.37243 36.1447H6.58602C6.51764 36.1447 6.46065 36.1217 6.41506 36.0757C6.36948 36.0297 6.34668 35.9721 6.34668 35.903V23.2837C6.34668 23.2146 6.36948 23.1571 6.41506 23.111C6.46065 23.065 6.51764 23.042 6.58602 23.042H7.44082C7.5092 23.042 7.56619 23.065 7.61178 23.111C7.65736 23.1571 7.68016 23.2146 7.68016 23.2837V27.3578C7.99928 26.978 8.37539 26.6845 8.80849 26.4774C9.25298 26.2587 9.72027 26.1494 10.2104 26.1494C10.86 26.1494 11.4584 26.3105 12.0054 26.6327C12.5525 26.955 12.9856 27.3923 13.3047 27.9447C13.6238 28.4971 13.7834 29.1014 13.7834 29.7574V32.7611C13.7834 33.4171 13.6238 34.0214 13.3047 34.5738C12.9856 35.1262 12.5525 35.5635 12.0054 35.8858C11.4584 36.208 10.86 36.3691 10.2104 36.3691ZM10.0736 35.0917C10.5067 35.0917 10.9056 34.9881 11.2703 34.7809C11.635 34.5623 11.9199 34.2688 12.1251 33.9005C12.3416 33.5322 12.4499 33.1294 12.4499 32.6921V29.8264C12.4499 29.3891 12.3416 28.9863 12.1251 28.618C11.9199 28.2497 11.635 27.962 11.2703 27.7548C10.9056 27.5362 10.5067 27.4268 10.0736 27.4268C9.64049 27.4268 9.23588 27.5362 8.85978 27.7548C8.49506 27.962 8.20443 28.2497 7.98788 28.618C7.78273 28.9863 7.68016 29.3891 7.68016 29.8264V32.6921C7.68016 33.1294 7.78273 33.5322 7.98788 33.9005C8.20443 34.2688 8.49506 34.5623 8.85978 34.7809C9.23588 34.9881 9.64049 35.0917 10.0736 35.0917Z" fill="white"/>
<path d="M18.2711 36.3692C17.3935 36.3692 16.6754 36.1217 16.117 35.6269C15.5585 35.1205 15.2793 34.4588 15.2793 33.6416C15.2793 32.882 15.53 32.2548 16.0315 31.7599C16.5444 31.2651 17.2567 30.9543 18.1685 30.8277L20.391 30.517C20.7215 30.471 20.9608 30.3616 21.109 30.189C21.2571 30.0049 21.3312 29.7459 21.3312 29.4122V29.274C21.3312 28.7216 21.1147 28.2786 20.6816 27.9448C20.2599 27.5995 19.7299 27.4269 19.0917 27.4269C18.5902 27.4269 18.1514 27.5305 17.7753 27.7376C17.4106 27.9333 17.1199 28.2095 16.9034 28.5663C16.8122 28.7159 16.6983 28.7907 16.5615 28.7907C16.4931 28.7907 16.419 28.7619 16.3392 28.7044L15.8777 28.3936C15.7751 28.3015 15.7238 28.2037 15.7238 28.1002C15.7238 28.0541 15.7409 27.9966 15.7751 27.9275C16.1056 27.3751 16.5558 26.9435 17.1257 26.6328C17.7069 26.3106 18.3737 26.1494 19.1259 26.1494C19.8097 26.1494 20.4194 26.2817 20.9551 26.5465C21.4908 26.7996 21.9011 27.1622 22.186 27.634C22.4824 28.1059 22.6305 28.6526 22.6305 29.274V35.9031C22.6305 35.9722 22.6077 36.0297 22.5621 36.0757C22.5166 36.1217 22.4596 36.1448 22.3912 36.1448H21.6732C21.6048 36.1448 21.5478 36.1217 21.5022 36.0757C21.4566 36.0297 21.4338 35.9722 21.4338 35.9031V34.7119C21.0805 35.2298 20.6246 35.6384 20.0661 35.9376C19.5191 36.2253 18.9207 36.3692 18.2711 36.3692ZM18.4078 35.1608C18.9663 35.1608 19.4735 35.0112 19.9294 34.7119C20.3853 34.4127 20.7386 34.0387 20.9893 33.5898C21.2515 33.1295 21.3825 32.6807 21.3825 32.2433V31.5355C21.109 31.57 20.2314 31.6909 18.7498 31.898L18.2711 31.9671C17.1314 32.1397 16.5615 32.6807 16.5615 33.5898C16.5615 34.0617 16.7324 34.4415 17.0744 34.7292C17.4163 35.0169 17.8608 35.1608 18.4078 35.1608Z" fill="white"/>
<path d="M25.2852 36.1272C25.2169 36.1272 25.1599 36.1042 25.1143 36.0581C25.0687 36.0121 25.0459 35.9546 25.0459 35.8855V26.6152C25.0459 26.5462 25.0687 26.4886 25.1143 26.4426C25.1599 26.3966 25.2169 26.3735 25.2852 26.3735H26.14C26.2084 26.3735 26.2654 26.3966 26.311 26.4426C26.3566 26.4886 26.3794 26.5462 26.3794 26.6152V27.5647C26.6757 27.0928 27.0575 26.736 27.5248 26.4944C28.0035 26.2527 28.5392 26.1318 29.1318 26.1318C30.1006 26.1318 30.8813 26.4311 31.4739 27.0295C32.078 27.628 32.38 28.4163 32.38 29.3946V35.8855C32.38 35.9546 32.3572 36.0121 32.3116 36.0581C32.2661 36.1042 32.2091 36.1272 32.1407 36.1272H31.2859C31.2175 36.1272 31.1605 36.1042 31.1149 36.0581C31.0694 36.0121 31.0466 35.9546 31.0466 35.8855V29.6535C31.0466 28.917 30.8528 28.3588 30.4653 27.979C30.0892 27.5877 29.5763 27.392 28.9267 27.392C28.1631 27.392 27.5476 27.6452 27.0803 28.1516C26.613 28.658 26.3794 29.3543 26.3794 30.2405V35.8855C26.3794 35.9546 26.3566 36.0121 26.311 36.0581C26.2654 36.1042 26.2084 36.1272 26.14 36.1272H25.2852Z" fill="white"/>
</svg>
